<svg width="423" height="170" viewBox="0 0 423 170" fill="none" xmlns="http://www.w3.org/2000/svg" role="img" aria-label="MyaiOne">
  <rect width="423" height="170" fill="#16263A" />
  <g transform="translate(64 47)">
<g class="logo-mark" transform="translate(-3 -1) scale(0.405)">
      <path d="M115.303 41.654L121.48 38.803C137.292 41.363 151.546 48.57 162.791 58.97L153.262 79.639C152.761 80.748 151.652 81.434 150.464 81.434C149.276 81.434 148.141 80.748 147.639 79.639L137.45 57.518L115.303 47.303C114.194 46.801 113.508 45.719 113.508 44.505C113.508 43.29 114.194 42.182 115.303 41.654Z" fill="#FF981F" />
      <path d="M107.019 42.542C146.281 42.542 178.11 74.371 178.11 113.634C178.11 151.881 147.907 183.072 110.051 184.661V184.727H32.557V141.457L16.24 140.923L8.877 140.682L12.606 134.328L48.133 73.807L48.21 73.676L48.296 73.55L48.303 73.54L48.306 73.536L48.392 73.41L48.395 73.405C48.899 72.674 49.413 71.96 49.931 71.264C57.208 61.474 66.945 53.617 78.234 48.611L79.259 48.167C79.601 48.022 79.944 47.88 80.286 47.741C80.356 47.713 80.473 47.665 80.575 47.624H80.576C82.081 47.021 83.612 46.466 85.167 45.964L85.178 45.961L85.23 45.944L85.236 45.942L85.244 45.94L85.314 45.917L85.395 45.892V45.893C85.554 45.842 85.73 45.785 85.909 45.73L85.922 45.726L85.936 45.722C87.293 45.301 88.667 44.919 90.057 44.579C95.496 43.247 101.178 42.542 107.019 42.542Z" fill="#FF981F" />
      <path d="M197.108 61.218C198.518 61.218 199.776 62.042 200.36 63.289L200.468 63.544L200.47 63.549L202.663 69.397L208.515 71.594L208.52 71.596C209.908 72.12 210.845 73.451 210.845 74.954C210.845 76.457 209.908 77.789 208.52 78.314L208.515 78.314L202.663 80.51L200.47 86.36L200.468 86.364C199.943 87.753 198.612 88.69 197.108 88.69C195.605 88.69 194.275 87.753 193.75 86.364L193.748 86.36L191.553 80.509L185.703 78.314L185.698 78.314C184.31 77.789 183.373 76.457 183.373 74.954C183.373 73.451 184.31 72.12 185.698 71.596L185.703 71.594L191.553 69.398L193.748 63.549L193.75 63.544C194.275 62.156 195.605 61.218 197.108 61.218ZM201.232 15.099C202.619 15.207 203.82 16.111 204.312 17.413L204.313 17.418L206.508 23.268L212.358 25.463L212.363 25.465C213.752 25.989 214.689 27.32 214.689 28.823C214.689 30.326 213.752 31.658 212.363 32.183L212.358 32.185L206.509 34.378L204.313 40.23L204.312 40.234C203.787 41.623 202.456 42.559 200.953 42.56C199.45 42.56 198.119 41.623 197.595 40.234L197.593 40.23L195.396 34.378L189.547 32.185L189.543 32.183C188.154 31.658 187.217 30.326 187.217 28.823C187.217 27.32 188.155 25.989 189.543 25.465L189.547 25.463L195.397 23.268L197.593 17.418L197.595 17.413C198.119 16.025 199.45 15.088 200.953 15.088L201.232 15.099Z" fill="#FF981F" />
      <path d="M142.292 14.112C144.997 14.21 147.465 15.813 148.622 18.33L157.441 37.423L176.519 46.226H176.518C179.117 47.419 180.742 50.013 180.742 52.82C180.742 55.627 179.117 58.218 176.519 59.412L176.52 59.413L157.424 68.232L148.612 87.309L148.613 87.31C147.423 89.918 144.825 91.551 142.012 91.551C139.205 91.551 136.611 89.925 135.417 87.326V87.327L126.614 68.25L107.521 59.432L107.521 59.431C105.018 58.28 103.402 55.837 103.304 53.103L103.299 52.838L103.304 52.574C103.401 49.866 104.992 47.387 107.524 46.225L126.616 37.422L135.436 18.329V18.33C136.629 15.732 139.223 14.107 142.029 14.107L142.292 14.112Z" fill="#FF981F" />
    </g>
  <g class="logo-word" transform="translate(88 59) scale(0.052 -0.052)">
      <path d="M66 745H216L459 422L696 745H846V0H691V480L466 190H446L221 491V0H66ZM1134 10 923 546H1084L1213 195L1342 546H1503L1211 -200H1051ZM1547 146Q1547 216 1595.5 260.5Q1644 305 1741 321L1892 345V360Q1892 391 1867.0 412.0Q1842 433 1801 433Q1761 433 1730.5 411.5Q1700 390 1686 353L1566 410Q1590 478 1655.5 518.0Q1721 558 1808 558Q1876 558 1929.5 533.0Q1983 508 2012.5 463.0Q2042 418 2042 360V0H1902V51Q1870 19 1830.0 3.5Q1790 -12 1738 -12Q1649 -12 1598.0 30.0Q1547 72 1547 146ZM1768 98Q1823 98 1857.5 132.5Q1892 167 1892 218V235L1768 213Q1735 207 1718.5 192.0Q1702 177 1702 151Q1702 126 1720.5 112.0Q1739 98 1768 98ZM2152 546H2302V0H2152ZM2227 784Q2268 784 2289.5 762.5Q2311 741 2311 700Q2311 659 2289.5 637.5Q2268 616 2227 616Q2187 616 2165.0 638.0Q2143 660 2143 700Q2143 741 2165.0 762.5Q2187 784 2227 784Z" fill="#FFFFFF" />
      <path d="M44 373Q44 481 95.5 569.0Q147 657 237.5 707.0Q328 757 439 757Q550 757 640.5 707.0Q731 657 782.5 569.0Q834 481 834 373Q834 265 782.5 177.0Q731 89 640.5 38.5Q550 -12 439 -12Q328 -12 237.5 38.5Q147 89 95.5 177.0Q44 265 44 373ZM439 128Q506 128 561.0 159.5Q616 191 647.5 246.5Q679 302 679 373Q679 444 647.5 499.5Q616 555 561.5 586.0Q507 617 439 617Q371 617 316.5 586.0Q262 555 230.5 499.5Q199 444 199 373Q199 302 230.5 246.5Q262 191 317.0 159.5Q372 128 439 128ZM933 546H1073V480Q1094 519 1133.5 538.5Q1173 558 1226 558Q1287 558 1334.0 532.0Q1381 506 1407.0 459.0Q1433 412 1433 351V0H1283V319Q1283 366 1255.5 394.5Q1228 423 1183 423Q1138 423 1110.5 394.5Q1083 366 1083 319V0H933ZM1510 274Q1510 354 1546.0 419.0Q1582 484 1645.0 521.0Q1708 558 1785 558Q1869 558 1930.0 523.0Q1991 488 2023.0 426.5Q2055 365 2055 289Q2055 252 2048 231H1666Q1673 179 1707.5 148.5Q1742 118 1797 118Q1836 118 1865.0 134.0Q1894 150 1910 178L2030 121Q2005 61 1941.5 24.5Q1878 -12 1795 -12Q1711 -12 1646.0 26.0Q1581 64 1545.5 129.5Q1510 195 1510 274ZM1896 341Q1891 385 1861.0 411.5Q1831 438 1785 438Q1740 438 1709.5 413.0Q1679 388 1669 341Z" transform="translate(2549.308 0)" fill="#FF981F" />
    </g>
  </g>
</svg>
